<svg width="76" height="70" viewBox="0 0 76 70" fill="none" xmlns="http://www.w3.org/2000/svg">
<rect width="76" height="70" fill="white"/>
<path d="M73.4952 48.0313C78.5771 57.9952 71.3592 69.8155 60.1742 69.8463L15.4607 69.9696C3.73059 70.002 -3.49583 57.1636 2.61739 47.1524L27.0156 7.19687C33.1288 -2.81436 47.8505 -2.25046 53.18 8.19908L73.4952 48.0313Z" fill="#38BDF8"/>
<path d="M83.9736 6.5544C71.0079 37.5512 34.2911 51.8942 1.85267 38.3256C-30.5858 24.7569 -46.1552 -11.4569 -33.1896 -42.4537C-20.224 -73.4505 16.4928 -87.7935 48.9313 -74.2249C81.3698 -60.6562 96.9392 -24.4424 83.9736 6.5544Z" stroke="white" stroke-width="5"/>
<path d="M35.5991 26.1578C22.6335 57.1546 -14.0833 71.4976 -46.5218 57.929C-78.9602 44.3603 -94.5297 8.14652 -81.564 -22.8503C-68.5984 -53.8471 -31.8816 -68.1901 0.556861 -54.6215C32.9953 -41.0528 48.5648 -4.83902 35.5991 26.1578Z" stroke="white" stroke-width="5"/>
<path d="M162.974 36.5544C150.008 67.5512 113.291 81.8942 80.8527 68.3256C48.4142 54.7569 32.8448 18.5431 45.8104 -12.4537C58.776 -43.4505 95.4928 -57.7935 127.931 -44.2249C160.37 -30.6562 175.939 5.55759 162.974 36.5544Z" stroke="white" stroke-width="5"/>
</svg>
